<?xml version="1.0" standalone="yes"?>
<svg xmlns="http://www.w3.org/2000/svg" width="512" height="512">
<path style="fill:#05182b; stroke:none;" d="M0 0L0 512L512 512L512 0L0 0z"/>
<path style="fill:#ef4624; stroke:none;" d="M54 138L133 184C137.832 180.962 140.773 173.66 144.333 169C149.792 161.855 156.316 155.034 163 149C193.525 121.442 233.645 110.077 274 114C293.224 115.869 312.607 123.543 329 133.333C337.153 138.202 346.774 149.852 357 149C365.102 148.325 369.596 142.404 375 137L402 110C406.316 105.684 412.82 101.045 414.667 95C418.876 81.2244 403.537 71.6231 394 65C367.714 46.7461 340.037 34.0926 309 26.3333C234.228 7.64029 148.412 31.5875 94 86C80.4894 99.5106 59.0351 118.867 54 138z"/>
<path style="fill:#ffd501; stroke:none;" d="M53 138C45.1611 159.277 33.3983 178.208 28.3333 201C19.0618 242.722 21.9721 285.099 33.3333 326C37.8079 342.108 47.375 355.732 53 371L74 360.167L134 326C132.078 316.871 125.778 307.858 122.333 299C116.041 282.82 113.316 262.32 115 245C116.422 230.37 119.816 215.697 125.333 202C126.926 198.047 134.741 188.095 133.333 184C131.756 179.413 119.066 175.039 115 172.667C101.721 164.92 88.2662 157.405 75 149.667C68.2528 145.731 60.6666 139.614 53 138z"/>
<path style="fill:#1682e1; stroke:none;" d="M388 306C377.879 333.47 354.629 362.685 328 376L340.667 400L373 457C387.082 453.294 402.405 438.565 413 429C452.79 393.078 482.02 343.823 488 290C489.979 272.189 491.905 252.923 489.167 235C487.531 224.292 486.179 215.871 474 213.333C459.23 210.256 441.109 213 426 213L325 213C311.019 213 283.738 207.828 272 216.333C265.719 220.885 266 229.12 266 236L266 284C266 291.528 266.377 299.916 274 303.833C283.536 308.734 298.513 306 309 306L388 306z"/>
<path style="fill:#12aa44; stroke:none;" d="M54 371C56.0435 378.765 62.87 386.604 67.6667 393C78.9877 408.095 91.679 421.668 106 434C163.256 483.304 241.438 497.791 314 481.667C335.342 476.924 353.23 465.804 373 458L361.167 435L328 377C315.535 379.624 303.716 388.134 291 391.667C259.17 400.508 222.202 396.246 193 380.833C176.852 372.311 162.24 360.558 150 347C146.36 342.968 138.923 327.244 134 326.167C128.808 325.031 116.483 335.156 112 337.833C93.0356 349.159 73.7319 361.134 54 371z"/>
<path style="fill:#1682e1; stroke:none;" d="M148 345L149 346L148 345M165 362L166 363L165 362M198 383L199 384L198 383M235 394L236 395L235 394M118 443L119 444L118 443M369 459L370 460L369 459M159 467L160 468L159 467M199 481L200 482L199 481z"/>
</svg>
